<?xml version="1.0" encoding="utf-8"?>
<!-- Generator: Adobe Illustrator 21.1.0, SVG Export Plug-In . SVG Version: 6.00 Build 0)  -->
<svg version="1.1" id="Layer_1" xmlns="http://www.w3.org/2000/svg" xmlns:xlink="http://www.w3.org/1999/xlink" x="0px" y="0px"
	 width="440" height="176" viewBox="0 0 440.4 175.7" style="enable-background:new 0 0 440.4 175.7;" xml:space="preserve">
<style type="text/css">
	.st0{fill-rule:evenodd;clip-rule:evenodd;fill:#FFFFFF;stroke:#1F375E;stroke-miterlimit:10;}
	.st1{fill:#FFFFFF;stroke:#1F375E;stroke-miterlimit:10;}
	.st2{fill-rule:evenodd;clip-rule:evenodd;fill:#1F375E;}
	.st3{fill:#1F375E;}
	.st4{fill-rule:evenodd;clip-rule:evenodd;fill:#FFFFFF;}
</style>
<g>
	<g>
		<path class="st0" d="M220.3,171c-105,0-216.6-29.1-216.6-83.2S115.3,4.7,220.3,4.7c105,0,216.6,29.1,216.6,83.2
			S325.3,171,220.3,171z"/>
		<path class="st1" d="M220.3,171c-105,0-216.6-29.1-216.6-83.2S115.3,4.7,220.3,4.7c105,0,216.6,29.1,216.6,83.2
			S325.3,171,220.3,171z"/>
	</g>
	<g>
		<path class="st2" d="M220.3,165.8c-101.9,0-210.3-27.3-210.3-78s108.3-78,210.3-78c101.9,0,210.3,27.3,210.3,78
			S322.2,165.8,220.3,165.8z"/>
		<path class="st3" d="M220.3,165.8c-101.9,0-210.3-27.3-210.3-78s108.3-78,210.3-78c101.9,0,210.3,27.3,210.3,78
			S322.2,165.8,220.3,165.8z"/>
	</g>
	<g>
		<g>
			<g>
				<path class="st4" d="M107.4,59.3c-1.4-1.7-3.4-3-5.9-4c-2.5-1-5.5-1.5-9.1-1.5c-4.5,0-8.6,0.8-12.2,2.3
					c-3.6,1.5-6.5,3.7-8.8,6.5c-2.3,2.8-3.7,6-4.3,9.7c-0.7,3.8-0.4,7,0.8,9.5c1.2,2.6,3.1,4.6,5.7,6.1c2.6,1.5,5.9,2.8,9.9,3.9
					c3,0.8,5.4,1.6,7.2,2.3c1.8,0.7,3.1,1.8,4.1,3.1c1,1.4,1.2,3.1,0.9,5.3c-0.5,2.8-2,5.1-4.5,6.9c-2.5,1.8-5.6,2.8-9.1,2.8
					c-2.6,0-4.6-0.5-6-1.4c-1.4-0.9-2.4-2.1-3.1-3.5c-0.6-1.4-1.1-3.2-1.5-5.3c-0.3-1.8-0.8-3.1-1.5-4c-0.7-0.9-1.7-1.3-3-1.3
					c-1.6,0-2.9,0.6-4.1,1.7c-1.2,1.2-1.9,2.5-2.2,4.2c-0.5,2.8-0.2,5.7,1,8.6c1.2,3,2.9,5.3,5.3,7.1c3.3,2.5,7.9,3.7,13.7,3.7
					c4.8,0,9.2-0.9,13-2.7c3.8-1.8,7-4.3,9.3-7.5c2.4-3.2,3.9-6.8,4.6-10.7c0.6-3.3,0.5-6.1-0.1-8.4c-0.7-2.3-1.8-4.2-3.4-5.7
					c-1.6-1.5-3.7-2.8-6.2-3.8c-2.5-1-5.3-2-8.5-2.9c-2.5-0.8-4.3-1.3-5.4-1.7c-1.1-0.4-2.1-0.9-3.1-1.6c-1-0.7-1.7-1.5-2.2-2.5
					c-0.5-1-0.6-2.1-0.4-3.4c0.4-2.1,1.6-3.9,3.8-5.5c2.2-1.5,4.8-2.3,7.8-2.3c3.3,0,5.6,0.7,6.9,2.1c1.3,1.4,2.2,3.3,2.8,5.8
					c0.5,1.7,1.1,3,1.7,3.8c0.6,0.8,1.5,1.1,2.9,1.1c1.5,0,2.9-0.6,4.1-1.9c1.2-1.3,2-2.7,2.3-4.3c0.3-1.7,0.2-3.5-0.3-5.3
					C109.8,62.7,108.8,60.9,107.4,59.3z"/>
				<path class="st4" d="M150.6,73.8c-2.5-1.3-6.2-1.9-11-1.9c-4.3,0-8,0.7-11.1,2c-3.1,1.3-5.5,3-7.3,5c-1.7,2-2.8,4.1-3.1,6.3
					c-0.2,1.4,0,2.5,0.8,3.4c0.7,0.9,1.7,1.3,3,1.3c1.4,0,2.3-0.3,2.8-0.8c0.5-0.6,1.4-1.7,2.7-3.4c1.3-1.7,2.7-3,4.3-3.9
					c1.6-0.9,3.7-1.3,6.5-1.3c3.2,0,5.2,0.8,6,2.3c0.8,1.5,0.9,3.9,0.5,7.1c-2.4,0.7-4.7,1.4-6.7,1.9c-2.1,0.5-4.5,1.1-7.4,1.7
					c-2.9,0.6-4.7,1-5.4,1.2c-3.5,0.8-6.3,2.4-8.7,4.8c-2.3,2.4-3.8,5.2-4.3,8.6c-0.4,2.5-0.3,4.8,0.5,6.9c0.8,2.1,2.1,3.8,4,5.1
					c1.9,1.2,4.3,1.9,7.1,1.9c3.1,0,6-0.6,8.6-1.7c2.7-1.2,5.5-2.9,8.6-5.2c0.8,2.2,1.7,4,2.6,5.1c0.9,1.2,1.9,1.8,3,1.8
					c1.3,0,2.6-0.5,3.9-1.6c1.2-1,2-2.2,2.2-3.4c0.1-0.7,0.1-2.3-0.2-4.8c-0.2-2.5-0.2-4.9,0.2-7.2c0.5-2.5,0.9-4.7,1.2-6.7
					c0.4-2,0.8-4.4,1.3-7.3c0.8-4.6,0.9-8.2,0.2-11C154.7,77.1,153.2,75.1,150.6,73.8L150.6,73.8z M143,99L143,99
					c-0.7,4.3-1.8,7.3-3.1,9.2c-1.2,1.7-2.7,3-4.8,4.1c-2,1.1-4.1,1.6-6.3,1.6c-2,0-3.6-0.7-4.6-2c-1-1.3-1.4-2.9-1.1-4.7
					c0.3-1.8,1.1-3.2,2.3-4.2c1.2-1,2.5-1.7,3.7-2c1.2-0.3,3.5-0.9,6.6-1.6c3.2-0.7,5.6-1.4,7.4-2.1L143,99z"/>
				<path class="st4" d="M223.7,74.1c-1.9-1.3-4.4-2-7.4-2c-2.6,0-5,0.6-7.3,1.8c-2.3,1.2-4.6,3.1-6.9,5.6c-0.9-2.5-2.2-4.3-3.9-5.6
					c-1.8-1.2-4-1.8-6.8-1.8c-2.6,0-5.2,0.6-7.5,1.8c-2.4,1.2-4.7,3.1-7.1,5.6l0.2-1.2c0.3-2,0.1-3.5-0.7-4.7
					c-0.8-1.1-2-1.7-3.5-1.7c-1.6,0-2.9,0.6-4.1,1.8c-1.2,1.2-1.9,3-2.3,5.3l-6.1,35.1c-0.4,2.5-0.3,4.5,0.6,5.8
					c0.8,1.3,2.1,2,3.7,2c1.7,0,3.2-0.7,4.4-2c1.3-1.3,2.1-3.2,2.6-5.8l2.9-16.6c0.9-5.1,2.2-9.1,3.8-11.9c1.6-2.8,4.2-4.1,7.8-4.1
					c1.8,0,3,0.5,3.6,1.6c0.6,1.1,0.9,2.5,0.8,4.2c-0.1,1.7-0.4,4.1-1,7.2l-3.4,19.5c-0.4,2.6-0.3,4.5,0.5,5.8
					c0.8,1.3,2,1.9,3.7,1.9c1.7,0,3.2-0.6,4.5-1.9c1.3-1.3,2.1-3.2,2.6-5.8l2.8-16.3c0.9-5.2,2-8.9,3.1-11c1-1.6,2.2-2.9,3.7-3.9
					c1.5-1,2.9-1.4,4.4-1.4c1.8,0,3,0.5,3.7,1.6c0.7,1.1,1,2.4,0.9,4c-0.1,1.6-0.3,3.7-0.8,6.3l-3.6,20.6c-0.4,2.5-0.3,4.5,0.6,5.8
					c0.8,1.3,2.1,2,3.7,2c1.7,0,3.2-0.6,4.5-1.9c1.3-1.3,2.1-3.2,2.6-5.8l4.2-23.9c0.8-4.8,1-8.3,0.4-10.5
					C226.9,77.3,225.7,75.4,223.7,74.1z"/>
				<path class="st4" d="M271.9,72c-1.6,0-3.1,0.6-4.3,1.8c-1.2,1.2-2.1,3.1-2.5,5.5l-2.6,14.9c-1,5.9-2,9.7-2.9,11.4
					c-1.1,2-2.6,3.6-4.4,4.8c-1.8,1.2-3.7,1.8-5.5,1.8c-1.9,0-3.3-0.5-4.2-1.6c-0.9-1.1-1.4-2.6-1.5-4.5c-0.1-1.9,0.1-4.3,0.6-7.2
					l3.4-19.6c0.4-2.4,0.2-4.3-0.6-5.5c-0.8-1.2-2-1.8-3.7-1.8c-1.6,0-3,0.6-4.2,1.8c-1.2,1.2-2,3.1-2.4,5.5l-4.2,24.3
					c-0.9,4.9-0.8,8.6,0.1,11.2c0.8,2.2,2.1,3.8,4,5.1c1.9,1.2,4.2,1.8,6.8,1.8c2.2,0,4.2-0.3,6-0.9c1.8-0.6,3.6-1.5,5.2-2.8
					c1.7-1.3,3.3-2.8,4.9-4.7l-0.3,1.6c-0.4,2.2-0.2,3.9,0.6,5.1c0.8,1.2,1.9,1.8,3.4,1.8c1.5,0,2.8-0.6,4-1.8
					c1.2-1.2,1.9-2.9,2.3-5.3l6.2-35.5c0.4-2.5,0.3-4.3-0.5-5.5C274.7,72.6,273.5,72,271.9,72z"/>
				<path class="st4" d="M315.7,79.1c0.4-2.1-0.4-3.8-2.4-5.1c-1.9-1.3-4.1-1.9-6.4-1.9s-4.3,0.6-5.9,1.9c-1.6,1.3-3.3,3.2-5,5.7
					c0.4-2.5,0.3-4.4-0.3-5.7c-0.6-1.3-1.8-1.9-3.6-1.9c-3.6,0-5.8,2.8-6.8,8.3l-6,34.1c-0.4,2.5-0.2,4.3,0.6,5.6
					c0.8,1.3,2,1.9,3.6,1.9c1.6,0,3-0.6,4.3-1.9c1.3-1.2,2.1-3.1,2.5-5.6l1.8-10.2c0.6-3.7,1.3-6.8,2-9.4c0.7-2.6,1.4-4.8,2.3-6.6
					c0.9-1.9,1.9-3.3,3.1-4.2c1.2-0.9,2.6-1.4,4.2-1.4c1.2,0,2.5,0.3,3.9,0.8c1.4,0.6,2.4,0.8,2.8,0.8c1.1,0,2.2-0.5,3.2-1.5
					C314.7,81.8,315.4,80.6,315.7,79.1z"/>
				<path class="st4" d="M349.4,73.8c-2.5-1.3-6.2-1.9-11-1.9c-4.3,0-8,0.7-11.1,2c-3.1,1.3-5.5,3-7.3,5c-1.7,2-2.8,4.1-3.1,6.3
					c-0.2,1.4,0,2.5,0.8,3.4c0.7,0.9,1.7,1.3,3,1.3c1.4,0,2.3-0.3,2.8-0.8c0.5-0.6,1.4-1.7,2.7-3.4c1.3-1.7,2.7-3,4.3-3.9
					c1.6-0.9,3.7-1.3,6.5-1.3c3.2,0,5.2,0.8,6,2.3c0.8,1.5,0.9,3.9,0.5,7.1c-2.4,0.7-4.7,1.4-6.7,1.9c-2.1,0.5-4.5,1.1-7.4,1.7
					c-2.9,0.6-4.7,1-5.4,1.2c-3.5,0.8-6.3,2.4-8.7,4.8c-2.3,2.4-3.8,5.2-4.3,8.6c-0.4,2.5-0.3,4.8,0.5,6.9c0.8,2.1,2.1,3.8,4,5.1
					c1.9,1.2,4.3,1.9,7.1,1.9c3.1,0,6-0.6,8.6-1.7c2.7-1.2,5.5-2.9,8.6-5.2c0.8,2.2,1.7,4,2.6,5.1c0.9,1.2,1.9,1.8,3,1.8
					c1.3,0,2.6-0.5,3.9-1.6c1.2-1,2-2.2,2.2-3.4c0.1-0.7,0.1-2.3-0.2-4.8c-0.2-2.5-0.2-4.9,0.2-7.2c0.5-2.5,0.9-4.7,1.2-6.7
					c0.4-2,0.8-4.4,1.3-7.3c0.8-4.6,0.9-8.2,0.2-11C353.5,77.1,351.9,75.1,349.4,73.8L349.4,73.8z M341.8,99L341.8,99
					c-0.7,4.3-1.8,7.3-3.1,9.2c-1.1,1.7-2.7,3-4.7,4.1c-2,1.1-4.1,1.6-6.3,1.6c-2,0-3.6-0.7-4.6-2c-1-1.3-1.4-2.9-1.1-4.7
					c0.3-1.8,1.1-3.2,2.3-4.2c1.2-1,2.5-1.7,3.7-2c1.2-0.3,3.5-0.9,6.6-1.6c3.2-0.7,5.6-1.4,7.4-2.1L341.8,99z"/>
				<path class="st4" d="M372.4,72c-1.6,0-3,0.6-4.2,1.8c-1.2,1.2-2,3.1-2.5,5.5l-6.1,35.1c-0.4,2.4-0.2,4.2,0.5,5.5
					c0.8,1.3,2,1.9,3.6,1.9c1.6,0,3-0.6,4.3-1.9c1.3-1.3,2.1-3.1,2.5-5.6l6.2-35.5c0.4-2.2,0.2-3.9-0.7-5.1
					C375.3,72.6,374,72,372.4,72z"/>
				<path class="st4" d="M375.6,54.3c-1.5,0-2.9,0.6-4.2,1.7c-1.3,1.1-2.1,2.6-2.4,4.3c-0.3,1.9,0,3.4,0.8,4.5
					c0.9,1,2.1,1.6,3.6,1.6c1.5,0,2.8-0.5,4.1-1.6c1.3-1.1,2-2.5,2.4-4.4c0.3-1.9,0.1-3.4-0.9-4.4C378.2,54.8,377.1,54.3,375.6,54.3
					z"/>
			</g>
		</g>
	</g>
</g>
</svg>
